<svg width="239" height="18" viewBox="0 0 239 18" fill="none" xmlns="http://www.w3.org/2000/svg">
<path d="M6.048 17V1.664L6.648 2.288H0.312V0.199999H14.16V2.288H7.824L8.4 1.664V17H6.048ZM13.9052 17L21.5132 0.199999H23.8892L31.5212 17H29.0012L22.2092 1.544H23.1692L16.3772 17H13.9052ZM17.1452 12.8L17.7932 10.88H27.2492L27.9452 12.8H17.1452ZM45.7247 17L39.6287 8.72L41.5727 7.52L48.4607 17H45.7247ZM34.4207 17V0.199999H36.7727V17H34.4207ZM36.0527 9.608V7.496H41.5007V9.608H36.0527ZM41.7887 8.864L39.5807 8.528L45.6047 0.199999H48.1727L41.7887 8.864ZM53.1047 7.448H61.7447V9.488H53.1047V7.448ZM53.3207 14.912H63.1127V17H50.9207V0.199999H62.7767V2.288H53.3207V14.912ZM66.0896 17.192C65.8496 17.192 65.6096 17.176 65.3696 17.144C65.1296 17.112 64.8656 17.064 64.5776 17L64.7456 14.864C65.0016 14.928 65.2576 14.96 65.5136 14.96C66.2176 14.96 66.7776 14.68 67.1936 14.12C67.6096 13.56 67.9136 12.712 68.1056 11.576C68.3136 10.44 68.4496 9.008 68.5136 7.28L68.7776 0.199999H80.6096V17H78.2576V1.664L78.8336 2.288H70.3136L70.8416 1.64L70.6496 7.208C70.6016 8.872 70.4896 10.328 70.3136 11.576C70.1376 12.824 69.8736 13.864 69.5216 14.696C69.1696 15.528 68.7136 16.152 68.1536 16.568C67.6096 16.984 66.9216 17.192 66.0896 17.192ZM83.5146 17L91.1226 0.199999H93.4986L101.131 17H98.6106L91.8186 1.544H92.7786L85.9866 17H83.5146ZM86.7546 12.8L87.4026 10.88H96.8586L97.5546 12.8H86.7546ZM122.049 17L116.793 8.72L118.809 7.52L124.857 17H122.049ZM113.433 9.608V7.496H118.353V9.608H113.433ZM118.953 8.864L116.721 8.528L121.881 0.199999H124.449L118.953 8.864ZM103.881 17H101.073L107.097 7.52L109.137 8.72L103.881 17ZM114.153 17H111.801V0.199999H114.153V17ZM112.521 9.608H107.577V7.496H112.521V9.608ZM107.001 8.864L101.481 0.199999H104.049L109.185 8.528L107.001 8.864ZM139.422 0.199999H141.822V17H139.422V0.199999ZM129.774 17H127.374V0.199999H129.774V17ZM139.638 9.512H129.534V7.424H139.638V9.512ZM147.061 17V0.199999H149.437V13.16L159.373 0.199999H161.581V17H159.229V4.064L149.269 17H147.061ZM178.123 17L172.027 8.72L173.971 7.52L180.859 17H178.123ZM166.819 17V0.199999H169.171V17H166.819ZM168.451 9.608V7.496H173.899V9.608H168.451ZM174.187 8.864L171.979 8.528L178.003 0.199999H180.571L174.187 8.864ZM183.319 17V0.199999H185.695V13.16L195.631 0.199999H197.839V17H195.487V4.064L185.527 17H183.319ZM203.197 17.144C202.749 17.144 202.365 16.992 202.045 16.688C201.725 16.368 201.565 15.968 201.565 15.488C201.565 15.008 201.725 14.616 202.045 14.312C202.365 14.008 202.749 13.856 203.197 13.856C203.629 13.856 203.997 14.008 204.301 14.312C204.621 14.616 204.781 15.008 204.781 15.488C204.781 15.968 204.621 16.368 204.301 16.688C203.997 16.992 203.629 17.144 203.197 17.144ZM208.514 17V0.199999H215.066C216.538 0.199999 217.794 0.431999 218.834 0.896C219.874 1.36 220.674 2.032 221.234 2.912C221.794 3.792 222.074 4.84 222.074 6.056C222.074 7.272 221.794 8.32 221.234 9.2C220.674 10.064 219.874 10.736 218.834 11.216C217.794 11.68 216.538 11.912 215.066 11.912H209.834L210.914 10.784V17H208.514ZM210.914 11.024L209.834 9.824H214.994C216.53 9.824 217.69 9.496 218.474 8.84C219.274 8.184 219.674 7.256 219.674 6.056C219.674 4.856 219.274 3.928 218.474 3.272C217.69 2.616 216.53 2.288 214.994 2.288H209.834L210.914 1.088V11.024ZM224.99 14.888C225.822 15.192 226.59 15.272 227.294 15.128C227.998 14.968 228.63 14.432 229.19 13.52L230.006 12.224L230.246 11.96L236.414 0.199999H238.79L231.326 14.024C230.766 15.08 230.11 15.88 229.358 16.424C228.622 16.952 227.822 17.24 226.958 17.288C226.11 17.352 225.246 17.192 224.366 16.808L224.99 14.888ZM230.174 14.096L222.806 0.199999H225.374L231.494 12.176L230.174 14.096Z" fill="white"/>
</svg>
