<svg width="38" height="38" viewBox="0 0 38 38" fill="none" xmlns="http://www.w3.org/2000/svg">
<g clip-path="url(#clip0_147_18)">
<path d="M19 0C8.50651 0 0 8.50651 0 19C0 29.4935 8.50651 38 19 38C29.4935 38 38 29.4935 38 19C38 8.50651 29.4935 0 19 0Z" fill="#40B3E0"/>
<path d="M28.2451 10.9296L24.8515 28.0395C24.8515 28.0395 24.377 29.2261 23.0718 28.6566L15.2405 22.6526L12.3929 21.2762L7.59923 19.6624C7.59923 19.6624 6.86357 19.4015 6.79232 18.8319C6.72122 18.2624 7.62298 17.9539 7.62298 17.9539L26.6788 10.4786C26.6788 10.4786 28.2451 9.79044 28.2451 10.9296Z" fill="white"/>
<path d="M14.6385 27.8474C14.6385 27.8474 14.4099 27.826 14.1251 26.9241C13.8404 26.0224 12.3928 21.2762 12.3928 21.2762L23.9022 13.9672C23.9022 13.9672 24.5668 13.5637 24.543 13.9672C24.543 13.9672 24.6616 14.0383 24.3057 14.3705C23.9497 14.7028 15.2642 22.5102 15.2642 22.5102" fill="#D2E5F1"/>
<path d="M18.2432 24.9546L15.1456 27.7788C15.1456 27.7788 14.9035 27.9626 14.6385 27.8474L15.2317 22.6014" fill="#B5CFE4"/>
</g>
<defs>
<clipPath id="clip0_147_18">
<rect width="38" height="38" fill="white"/>
</clipPath>
</defs>
</svg>
