<svg width="38" height="38" viewBox="0 0 38 38" fill="none" xmlns="http://www.w3.org/2000/svg">
<path d="M1.02583 38L2.95336 29.0796C0.475919 25.1846 -0.490538 20.5223 0.235316 15.9676C0.961171 11.4128 3.32945 7.2786 6.89582 4.34055C10.4622 1.4025 14.9816 -0.137445 19.606 0.00964217C24.2304 0.156729 28.6421 1.98074 32.0133 5.13945C35.3845 8.29816 37.4835 12.5745 37.9166 17.1661C38.3496 21.7577 37.0869 26.3491 34.3654 30.0787C31.6439 33.8083 27.6505 36.42 23.1346 37.4236C18.6187 38.4272 13.8906 37.7538 9.83741 35.5297L1.02583 38Z" fill="#25D366"/>
<path d="M26.4968 21.5316C26.0837 21.2571 25.6707 21.1199 25.2577 21.6688L23.6055 23.8646C23.1924 24.1391 22.9171 24.2763 22.3664 24.0019C20.3011 22.904 17.4098 21.6688 14.9316 17.5517C14.7939 17.0028 15.0693 16.7283 15.3446 16.4538L16.5838 14.5325C16.8591 14.258 16.7214 13.9836 16.5838 13.7091L14.9316 9.72921C14.5185 8.63131 14.1055 8.76855 13.6925 8.76855H12.591C12.3157 8.76855 11.7649 8.90579 11.2142 9.45474C8.18523 12.474 9.42435 16.7283 11.6272 19.473C12.0403 20.022 14.7939 24.9625 20.7142 27.57C25.12 29.4913 26.0837 29.2169 27.3229 28.9424C28.8374 28.8052 30.3518 27.57 31.0402 26.3349C31.1779 25.9232 31.8663 24.1391 31.3156 23.8646" fill="white"/>
</svg>
